<svg width="17" height="20" viewBox="0 0 17 20" fill="none" xmlns="http://www.w3.org/2000/svg">
<path d="M14.8333 15.8333H5.66663C5.20829 15.8333 4.81593 15.6701 4.48954 15.3437C4.16315 15.0173 3.99996 14.625 3.99996 14.1666V2.49998C3.99996 2.04165 4.16315 1.64929 4.48954 1.3229C4.81593 0.996507 5.20829 0.833313 5.66663 0.833313H11.5L16.5 5.83331V14.1666C16.5 14.625 16.3368 15.0173 16.0104 15.3437C15.684 15.6701 15.2916 15.8333 14.8333 15.8333ZM10.6666 6.66665V2.49998H5.66663V14.1666H14.8333V6.66665H10.6666ZM2.33329 19.1666C1.87496 19.1666 1.4826 19.0035 1.15621 18.6771C0.82982 18.3507 0.666626 17.9583 0.666626 17.5V5.83331H2.33329V17.5H11.5V19.1666H2.33329Z" fill="#243B4A" fill-opacity="0.5"/>
</svg>
