<svg width="23" height="15" viewBox="0 0 23 15" fill="none" xmlns="http://www.w3.org/2000/svg">
<path d="M11.5 12C12.75 12 13.8125 11.5625 14.6875 10.6875C15.5625 9.8125 16 8.75 16 7.5C16 6.25 15.5625 5.1875 14.6875 4.3125C13.8125 3.4375 12.75 3 11.5 3C10.25 3 9.1875 3.4375 8.3125 4.3125C7.4375 5.1875 7 6.25 7 7.5C7 8.75 7.4375 9.8125 8.3125 10.6875C9.1875 11.5625 10.25 12 11.5 12ZM11.5 10.2C10.75 10.2 10.1125 9.9375 9.5875 9.4125C9.0625 8.8875 8.8 8.25 8.8 7.5C8.8 6.75 9.0625 6.1125 9.5875 5.5875C10.1125 5.0625 10.75 4.8 11.5 4.8C12.25 4.8 12.8875 5.0625 13.4125 5.5875C13.9375 6.1125 14.2 6.75 14.2 7.5C14.2 8.25 13.9375 8.8875 13.4125 9.4125C12.8875 9.9375 12.25 10.2 11.5 10.2ZM11.5 15C9.06667 15 6.85 14.3208 4.85 12.9625C2.85 11.6042 1.4 9.78333 0.5 7.5C1.4 5.21667 2.85 3.39583 4.85 2.0375C6.85 0.679167 9.06667 0 11.5 0C13.9333 0 16.15 0.679167 18.15 2.0375C20.15 3.39583 21.6 5.21667 22.5 7.5C21.6 9.78333 20.15 11.6042 18.15 12.9625C16.15 14.3208 13.9333 15 11.5 15ZM11.5 13C13.3833 13 15.1125 12.5042 16.6875 11.5125C18.2625 10.5208 19.4667 9.18333 20.3 7.5C19.4667 5.81667 18.2625 4.47917 16.6875 3.4875C15.1125 2.49583 13.3833 2 11.5 2C9.61667 2 7.8875 2.49583 6.3125 3.4875C4.7375 4.47917 3.53333 5.81667 2.7 7.5C3.53333 9.18333 4.7375 10.5208 6.3125 11.5125C7.8875 12.5042 9.61667 13 11.5 13Z" fill="white"/>
</svg>
