<svg width="20" height="20" viewBox="0 0 20 20" fill="none" xmlns="http://www.w3.org/2000/svg">
<g id="stock 1" clip-path="url(#clip0_184_66)">
<g id="Clip path group">
<mask id="mask0_184_66" style="mask-type:luminance" maskUnits="userSpaceOnUse" x="0" y="0" width="20" height="20">
<g id="a">
<path id="Vector" d="M0 0H20V20H0V0Z" fill="white"/>
</g>
</mask>
<g mask="url(#mask0_184_66)">
<g id="Group">
<path id="Vector_2" fill-rule="evenodd" clip-rule="evenodd" d="M6.66667 2.49996C6.66667 2.27895 6.57887 2.06698 6.42259 1.9107C6.26631 1.75442 6.05435 1.66663 5.83333 1.66663C5.61232 1.66663 5.40036 1.75442 5.24408 1.9107C5.0878 2.06698 5 2.27895 5 2.49996V4.16663C4.33696 4.16663 3.70107 4.43002 3.23223 4.89886C2.76339 5.3677 2.5 6.00358 2.5 6.66663V9.16662C2.5 9.82967 2.76339 10.4656 3.23223 10.9344C3.70107 11.4032 4.33696 11.6666 5 11.6666V13.3333C5 13.5543 5.0878 13.7663 5.24408 13.9225C5.40036 14.0788 5.61232 14.1666 5.83333 14.1666C6.05435 14.1666 6.26631 14.0788 6.42259 13.9225C6.57887 13.7663 6.66667 13.5543 6.66667 13.3333V11.6666C7.32971 11.6666 7.96559 11.4032 8.43443 10.9344C8.90327 10.4656 9.16667 9.82967 9.16667 9.16662V6.66663C9.16667 6.00358 8.90327 5.3677 8.43443 4.89886C7.96559 4.43002 7.32971 4.16663 6.66667 4.16663V2.49996ZM6.66667 9.99996C6.88768 9.99996 7.09964 9.91216 7.25592 9.75588C7.4122 9.5996 7.5 9.38764 7.5 9.16662V6.66663C7.5 6.44561 7.4122 6.23365 7.25592 6.07737C7.09964 5.92109 6.88768 5.83329 6.66667 5.83329H5C4.77899 5.83329 4.56702 5.92109 4.41074 6.07737C4.25446 6.23365 4.16667 6.44561 4.16667 6.66663V9.16662C4.16667 9.38764 4.25446 9.5996 4.41074 9.75588C4.56702 9.91216 4.77899 9.99996 5 9.99996H6.66667ZM10.8333 10.8333C10.8333 10.1702 11.0967 9.53437 11.5656 9.06552C12.0344 8.59668 12.6703 8.33329 13.3333 8.33329V6.66663C13.3333 6.44561 13.4211 6.23365 13.5774 6.07737C13.7337 5.92109 13.9457 5.83329 14.1667 5.83329C14.3877 5.83329 14.5996 5.92109 14.7559 6.07737C14.9122 6.23365 15 6.44561 15 6.66663V8.33329C15.663 8.33329 16.2989 8.59668 16.7678 9.06552C17.2366 9.53437 17.5 10.1702 17.5 10.8333V13.3333C17.5 13.9963 17.2366 14.6322 16.7678 15.1011C16.2989 15.5699 15.663 15.8333 15 15.8333V17.5C15 17.721 14.9122 17.9329 14.7559 18.0892C14.5996 18.2455 14.3877 18.3333 14.1667 18.3333C13.9457 18.3333 13.7337 18.2455 13.5774 18.0892C13.4211 17.9329 13.3333 17.721 13.3333 17.5V15.8333C12.6703 15.8333 12.0344 15.5699 11.5656 15.1011C11.0967 14.6322 10.8333 13.9963 10.8333 13.3333V10.8333ZM15 14.1666C15.221 14.1666 15.433 14.0788 15.5893 13.9225C15.7455 13.7663 15.8333 13.5543 15.8333 13.3333V10.8333C15.8333 10.6123 15.7455 10.4003 15.5893 10.244C15.433 10.0878 15.221 9.99996 15 9.99996H13.3333C13.1123 9.99996 12.9004 10.0878 12.7441 10.244C12.5878 10.4003 12.5 10.6123 12.5 10.8333V13.3333C12.5 13.5543 12.5878 13.7663 12.7441 13.9225C12.9004 14.0788 13.1123 14.1666 13.3333 14.1666H15Z" fill="#22282F"/>
</g>
</g>
</g>
</g>
<defs>
<clipPath id="clip0_184_66">
<rect width="20" height="20" fill="white"/>
</clipPath>
</defs>
</svg>
