<svg width="20" height="20" viewBox="0 0 20 20" fill="none" xmlns="http://www.w3.org/2000/svg">
<g clip-path="url(#clip0_160_2)">
<mask id="mask0_160_2" style="mask-type:luminance" maskUnits="userSpaceOnUse" x="0" y="0" width="20" height="20">
<path d="M0 0H20V20H0V0Z" fill="white"/>
</mask>
<g mask="url(#mask0_160_2)">
<path fill-rule="evenodd" clip-rule="evenodd" d="M2.5 4.99996V15C2.5 15.884 2.85119 16.7319 3.47631 17.357C4.10143 17.9821 4.94928 18.3333 5.83333 18.3333H16.6667C16.8877 18.3333 17.0996 18.2455 17.2559 18.0892C17.4122 17.9329 17.5 17.721 17.5 17.5C17.5 17.2789 17.4122 17.067 17.2559 16.9107C17.0996 16.7544 16.8877 16.6666 16.6667 16.6666H5.83333C5.39131 16.6666 4.96738 16.491 4.65482 16.1785C4.34226 15.8659 4.16667 15.442 4.16667 15C4.16667 14.5579 4.34226 14.134 4.65482 13.8214C4.96738 13.5089 5.39131 13.3333 5.83333 13.3333H16.6667C16.8877 13.3333 17.0996 13.2455 17.2559 13.0892C17.4122 12.9329 17.5 12.721 17.5 12.5V3.33329C17.5 2.89126 17.3244 2.46734 17.0118 2.15478C16.6993 1.84222 16.2754 1.66663 15.8333 1.66663H5.83333C4.94928 1.66663 4.10143 2.01782 3.47631 2.64294C2.85119 3.26806 2.5 4.1159 2.5 4.99996ZM5.83333 3.33329C5.39131 3.33329 4.96738 3.50889 4.65482 3.82145C4.34226 4.13401 4.16667 4.55793 4.16667 4.99996V12.1125C4.6732 11.8195 5.24819 11.6657 5.83333 11.6666H15.8333V3.33329H5.83333Z" fill="white"/>
<path d="M5.83333 15.8333C5.61232 15.8333 5.40036 15.7455 5.24408 15.5892C5.0878 15.4329 5 15.221 5 15C5 14.7789 5.0878 14.567 5.24408 14.4107C5.40036 14.2544 5.61232 14.1666 5.83333 14.1666H15.8333C16.0543 14.1666 16.2663 14.2544 16.4226 14.4107C16.5789 14.567 16.6667 14.7789 16.6667 15C16.6667 15.221 16.5789 15.4329 16.4226 15.5892C16.2663 15.7455 16.0543 15.8333 15.8333 15.8333H5.83333Z" fill="white"/>
</g>
</g>
<defs>
<clipPath id="clip0_160_2">
<rect width="20" height="20" fill="white"/>
</clipPath>
</defs>
</svg>
