<svg width="20" height="20" viewBox="0 0 20 20" fill="none" xmlns="http://www.w3.org/2000/svg">
<path d="M2.99631 3.19224L3.08709 3.08709C3.41992 2.75425 3.94075 2.724 4.30776 2.99631L4.41291 3.08709L10 8.67375L15.5871 3.08709C15.9532 2.72097 16.5468 2.72097 16.9129 3.08709C17.279 3.4532 17.279 4.0468 16.9129 4.41291L11.3263 10L16.9129 15.5871C17.2457 15.9199 17.276 16.4408 17.0037 16.8078L16.9129 16.9129C16.5801 17.2457 16.0592 17.276 15.6922 17.0037L15.5871 16.9129L10 11.3263L4.41291 16.9129C4.0468 17.279 3.4532 17.279 3.08709 16.9129C2.72097 16.5468 2.72097 15.9532 3.08709 15.5871L8.67375 10L3.08709 4.41291C2.75425 4.08008 2.724 3.55925 2.99631 3.19224Z" fill="#22282F"/>
</svg>
