<svg width="20" height="20" viewBox="0 0 20 20" fill="none" xmlns="http://www.w3.org/2000/svg">
<g clip-path="url(#clip0_193_502)">
<path d="M17.2729 7.27277H9.09113C8.08698 7.27277 7.27295 8.08679 7.27295 9.09095V17.2728C7.27295 18.2769 8.08698 19.0909 9.09113 19.0909H17.2729C18.2771 19.0909 19.0911 18.2769 19.0911 17.2728V9.09095C19.0911 8.08679 18.2771 7.27277 17.2729 7.27277Z" stroke="#22282F" stroke-width="2" stroke-linecap="round" stroke-linejoin="round"/>
<path d="M3.63645 12.7273H2.72736C2.24515 12.7273 1.78269 12.5357 1.44171 12.1948C1.10074 11.8538 0.90918 11.3913 0.90918 10.9091V2.7273C0.90918 2.24509 1.10074 1.78263 1.44171 1.44165C1.78269 1.10068 2.24515 0.909119 2.72736 0.909119L10.9092 0.909119C11.3914 0.909119 11.8539 1.10068 12.1948 1.44165C12.5358 1.78263 12.7274 2.24509 12.7274 2.7273V3.63639" stroke="#22282F" stroke-width="2" stroke-linecap="round" stroke-linejoin="round"/>
</g>
<defs>
<clipPath id="clip0_193_502">
<rect width="20" height="20" fill="white"/>
</clipPath>
</defs>
</svg>
