<svg width="21" height="20" viewBox="0 0 21 20" fill="none" xmlns="http://www.w3.org/2000/svg">
<g clip-path="url(#clip0_130_961)">
<mask id="mask0_130_961" style="mask-type:luminance" maskUnits="userSpaceOnUse" x="0" y="0" width="21" height="20">
<path d="M0.5 0H20.5V20H0.5V0Z" fill="white"/>
</mask>
<g mask="url(#mask0_130_961)">
<path fill-rule="evenodd" clip-rule="evenodd" d="M10.0845 4.99999C10.0846 4.84303 10.129 4.6893 10.2126 4.55648C10.2963 4.42366 10.4157 4.31716 10.5572 4.24924C10.6987 4.18132 10.8565 4.15474 11.0124 4.17257C11.1684 4.19039 11.3161 4.25189 11.4386 4.34999L17.6886 9.34999C17.786 9.42807 17.8645 9.52702 17.9185 9.63952C17.9725 9.75202 18.0005 9.87521 18.0005 9.99999C18.0005 10.1248 17.9725 10.248 17.9185 10.3605C17.8645 10.473 17.786 10.5719 17.6886 10.65L11.4386 15.65C11.3161 15.7481 11.1684 15.8096 11.0124 15.8274C10.8565 15.8452 10.6987 15.8187 10.5572 15.7507C10.4157 15.6828 10.2963 15.5763 10.2126 15.4435C10.129 15.3107 10.0846 15.1569 10.0845 15V12.5158C8.67864 12.5708 7.57364 12.7767 6.59197 13.1692C5.4278 13.6358 4.37364 14.3892 3.17364 15.5892C3.05089 15.7121 2.89276 15.7937 2.72139 15.8224C2.55001 15.8511 2.37395 15.8255 2.21784 15.7491C2.06173 15.6728 1.93338 15.5496 1.85075 15.3968C1.76811 15.2439 1.73532 15.0691 1.75697 14.8967C1.98197 13.1017 2.66364 11.235 4.1428 9.81582C5.49447 8.51749 7.43447 7.66832 10.0845 7.52249V4.99999ZM11.7511 13.2667L15.8345 9.99999L11.7511 6.73332V9.16666H10.9178C8.16614 9.16666 6.41114 9.94832 5.29697 11.0175C4.81363 11.4825 4.4328 12.0175 4.1403 12.6008C4.7144 12.2094 5.32907 11.8811 5.97364 11.6217C7.40947 11.0483 8.9828 10.8333 10.9178 10.8333H11.7511V13.2667Z" fill="white"/>
</g>
</g>
<defs>
<clipPath id="clip0_130_961">
<rect width="20" height="20" fill="white" transform="translate(0.5)"/>
</clipPath>
</defs>
</svg>
