<svg width="20" height="20" viewBox="0 0 20 20" fill="none" xmlns="http://www.w3.org/2000/svg">
<path d="M4.88634 3.08721C4.32983 3.08721 3.87845 2.63583 3.87845 2.07932C3.87845 1.52267 4.32983 1.07129 4.88634 1.07129H15.4181C15.9747 1.07129 16.426 1.52267 16.426 2.07932C16.426 2.63583 15.9747 3.08721 15.4181 3.08721H4.88634ZM4.88634 18.9983C4.32983 18.9983 3.87845 18.547 3.87845 17.9904C3.87845 17.4338 4.32983 16.9824 4.88634 16.9824H15.4181C15.9747 16.9824 16.426 17.4338 16.426 17.9904C16.426 18.547 15.9747 18.9983 15.4181 18.9983H4.88634ZM1.36531 11.042C0.808804 11.042 0.357422 10.5906 0.357422 10.0341C0.357422 9.47756 0.808804 9.02604 1.36531 9.02604H18.939C19.4955 9.02604 19.9471 9.47756 19.9471 10.0341C19.9471 10.5906 19.4955 11.042 18.939 11.042H1.36531Z" fill="white"/>
</svg>
