<svg width="20" height="20" viewBox="0 0 20 20" fill="none" xmlns="http://www.w3.org/2000/svg">
<g clip-path="url(#clip0_193_174)">
<mask id="mask0_193_174" style="mask-type:luminance" maskUnits="userSpaceOnUse" x="0" y="0" width="20" height="20">
<path d="M0 0H20V20H0V0Z" fill="white"/>
</mask>
<g mask="url(#mask0_193_174)">
<path fill-rule="evenodd" clip-rule="evenodd" d="M6.66669 0.833374C6.8877 0.833374 7.09966 0.921171 7.25594 1.07745C7.41222 1.23373 7.50002 1.44569 7.50002 1.66671V2.50004H12.5V1.66671C12.5 1.44569 12.5878 1.23373 12.7441 1.07745C12.9004 0.921171 13.1123 0.833374 13.3334 0.833374C13.5544 0.833374 13.7663 0.921171 13.9226 1.07745C14.0789 1.23373 14.1667 1.44569 14.1667 1.66671V2.50004H15C15.8841 2.50004 16.7319 2.85123 17.357 3.47635C17.9822 4.10147 18.3334 4.94932 18.3334 5.83337V14.1667C18.3334 15.0508 17.9822 15.8986 17.357 16.5237C16.7319 17.1488 15.8841 17.5 15 17.5H5.00002C4.11596 17.5 3.26812 17.1488 2.643 16.5237C2.01788 15.8986 1.66669 15.0508 1.66669 14.1667V5.83337C1.66669 4.94932 2.01788 4.10147 2.643 3.47635C3.26812 2.85123 4.11596 2.50004 5.00002 2.50004H5.83335V1.66671C5.83335 1.44569 5.92115 1.23373 6.07743 1.07745C6.23371 0.921171 6.44567 0.833374 6.66669 0.833374ZM12.5 4.16671V5.00004C12.5 5.22105 12.5878 5.43301 12.7441 5.5893C12.9004 5.74558 13.1123 5.83337 13.3334 5.83337C13.5544 5.83337 13.7663 5.74558 13.9226 5.5893C14.0789 5.43301 14.1667 5.22105 14.1667 5.00004V4.16671H15C15.442 4.16671 15.866 4.3423 16.1785 4.65486C16.4911 4.96742 16.6667 5.39135 16.6667 5.83337V7.50004H3.33335V5.83337C3.33335 5.39135 3.50895 4.96742 3.82151 4.65486C4.13407 4.3423 4.55799 4.16671 5.00002 4.16671H5.83335V5.00004C5.83335 5.22105 5.92115 5.43301 6.07743 5.5893C6.23371 5.74558 6.44567 5.83337 6.66669 5.83337C6.8877 5.83337 7.09966 5.74558 7.25594 5.5893C7.41222 5.43301 7.50002 5.22105 7.50002 5.00004V4.16671H12.5ZM3.33335 9.16671H16.6667V14.1667C16.6667 14.6087 16.4911 15.0327 16.1785 15.3452C15.866 15.6578 15.442 15.8334 15 15.8334H5.00002C4.55799 15.8334 4.13407 15.6578 3.82151 15.3452C3.50895 15.0327 3.33335 14.6087 3.33335 14.1667V9.16671Z" fill="#92CB5A"/>
</g>
</g>
<defs>
<clipPath id="clip0_193_174">
<rect width="20" height="20" fill="white"/>
</clipPath>
</defs>
</svg>
