<svg width="20" height="20" viewBox="0 0 20 20" fill="none" xmlns="http://www.w3.org/2000/svg">
<g clip-path="url(#clip0_193_550)">
<mask id="mask0_193_550" style="mask-type:luminance" maskUnits="userSpaceOnUse" x="0" y="0" width="20" height="20">
<path d="M0 0H20V20H0V0Z" fill="white"/>
</mask>
<g mask="url(#mask0_193_550)">
<path d="M9.99998 11.2891L8.62081 12.0141C8.52438 12.0649 8.41565 12.0877 8.30694 12.0799C8.19824 12.072 8.0939 12.0339 8.00575 11.9698C7.91761 11.9057 7.8492 11.8182 7.80826 11.7172C7.76732 11.6161 7.7555 11.5057 7.77414 11.3983L8.03748 9.86247L6.92081 8.77497C6.84285 8.69894 6.78772 8.6026 6.76168 8.49686C6.73563 8.39112 6.73971 8.2802 6.77344 8.17665C6.80718 8.07311 6.86922 7.98108 6.95256 7.91097C7.03589 7.84086 7.13719 7.79549 7.24498 7.77997L8.78664 7.55497L9.47664 6.1583C9.52485 6.06079 9.59936 5.9787 9.69177 5.92131C9.78417 5.86391 9.89078 5.8335 9.99956 5.8335C10.1083 5.8335 10.2149 5.86391 10.3073 5.92131C10.3998 5.9787 10.4743 6.06079 10.5225 6.1583L11.2133 7.55664L12.755 7.7808C12.8627 7.79645 12.9639 7.84192 13.0471 7.91208C13.1303 7.98223 13.1923 8.07428 13.2259 8.1778C13.2596 8.28132 13.2636 8.39219 13.2375 8.49787C13.2114 8.60355 13.1563 8.69982 13.0783 8.7758L11.9616 9.86247L12.2258 11.3991C12.2443 11.5065 12.2323 11.6168 12.1913 11.7177C12.1503 11.8186 12.0818 11.9059 11.9937 11.9699C11.9056 12.0339 11.8014 12.072 11.6927 12.0798C11.5841 12.0876 11.4755 12.0649 11.3791 12.0141L9.99998 11.2891Z" fill="#92CB5A"/>
<path fill-rule="evenodd" clip-rule="evenodd" d="M6.66665 1.66663C5.78259 1.66663 4.93474 2.01782 4.30962 2.64294C3.6845 3.26806 3.33331 4.1159 3.33331 4.99996V16.8975C3.33331 18.1766 4.71581 18.9791 5.82665 18.3441L9.99998 15.96L14.1733 18.3441C15.2841 18.9791 16.6666 18.1775 16.6666 16.8975V4.99996C16.6666 4.1159 16.3155 3.26806 15.6903 2.64294C15.0652 2.01782 14.2174 1.66663 13.3333 1.66663H6.66665ZM4.99998 4.99996C4.99998 4.55793 5.17557 4.13401 5.48813 3.82145C5.8007 3.50889 6.22462 3.33329 6.66665 3.33329H13.3333C13.7753 3.33329 14.1993 3.50889 14.5118 3.82145C14.8244 4.13401 15 4.55793 15 4.99996V16.8975L10.4133 14.2766C10.2874 14.2047 10.145 14.1669 9.99998 14.1669C9.855 14.1669 9.71253 14.2047 9.58665 14.2766L4.99998 16.8975V4.99996Z" fill="#92CB5A"/>
</g>
</g>
<defs>
<clipPath id="clip0_193_550">
<rect width="20" height="20" fill="white"/>
</clipPath>
</defs>
</svg>
