<svg width="20" height="20" viewBox="0 0 20 20" fill="none" xmlns="http://www.w3.org/2000/svg">
<path d="M10 2.50079C6.39055 2.50079 4.01575 4.35907 2.66142 6.16694C1.30709 7.97481 0.856693 9.80156 0.856693 9.80156C0.824787 9.93192 0.824787 10.0681 0.856693 10.1984C0.856693 10.1984 1.30394 12.0252 2.66142 13.8331C4.01575 15.6409 6.39055 17.4992 10 17.4992C13.6126 17.4992 15.978 15.6409 17.3354 13.8331C18.6898 12.0252 19.1433 10.1984 19.1433 10.1984C19.1752 10.0681 19.1752 9.93192 19.1433 9.80156C19.1433 9.80156 18.6898 7.97481 17.3354 6.16694C15.978 4.35592 13.6126 2.50079 10 2.50079ZM10 4.17008C13.0551 4.17008 14.8567 5.64408 16 7.16849C17.0677 8.59212 17.3764 9.8142 17.4236 9.99687C17.3764 10.1764 17.0677 11.4079 16 12.8315C14.8567 14.3559 13.0583 15.8331 10 15.8331C6.94488 15.8331 5.14016 14.3559 3.99685 12.8315C2.92598 11.4079 2.61732 10.1764 2.56693 9.99687C2.61732 9.81734 2.92913 8.59212 3.99685 7.16849C5.14016 5.64408 6.94488 4.16691 10 4.16691V4.17008ZM10 6.67089C8.17008 6.67089 6.66457 8.16695 6.66457 9.99687C6.66457 11.8268 8.17008 13.3291 10.0032 13.3291C10.8853 13.3258 11.7303 12.9735 12.3535 12.3491C12.9767 11.7247 13.3275 10.879 13.3291 9.99687C13.3258 9.11524 12.9739 8.27066 12.3502 7.64755C11.7265 7.02443 10.8816 6.67338 10 6.67089ZM10 8.33076C10.9323 8.33076 11.6693 9.06776 11.6693 10C11.6706 10.2193 11.6282 10.4366 11.5447 10.6393C11.4612 10.8421 11.3381 11.0262 11.1828 11.181C11.0275 11.3357 10.8429 11.4581 10.6398 11.5408C10.4368 11.6236 10.2193 11.6651 10 11.663C9.78059 11.6647 9.56302 11.6228 9.35995 11.5397C9.15687 11.4566 8.97232 11.3339 8.81702 11.1789C8.66172 11.0239 8.53876 10.8396 8.45528 10.6366C8.37179 10.4337 8.32945 10.2163 8.33071 9.99687C8.33071 9.06774 9.07087 8.32758 10 8.32758V8.33076Z" fill="white"/>
</svg>
