<svg width="20" height="20" viewBox="0 0 20 20" fill="none" xmlns="http://www.w3.org/2000/svg">
<g clip-path="url(#clip0_38_388)">
<mask id="mask0_38_388" style="mask-type:luminance" maskUnits="userSpaceOnUse" x="0" y="0" width="20" height="20">
<path d="M0 0H20V20H0V0Z" fill="white"/>
</mask>
<g mask="url(#mask0_38_388)">
<path fill-rule="evenodd" clip-rule="evenodd" d="M9.5775 0.948327C9.70556 0.873002 9.85143 0.833282 10 0.833282C10.1486 0.833282 10.2944 0.873002 10.4225 0.948327L17.5058 5.11499C17.6309 5.18857 17.7347 5.29356 17.8068 5.41955C17.8788 5.54554 17.9167 5.68818 17.9167 5.83333C17.9167 5.97848 17.8788 6.12111 17.8068 6.24711C17.7347 6.3731 17.6309 6.47808 17.5058 6.55166L10.4225 10.7183C10.2944 10.7937 10.1486 10.8334 10 10.8334C9.85143 10.8334 9.70556 10.7937 9.5775 10.7183L2.49416 6.55166C2.36904 6.47808 2.26531 6.3731 2.19324 6.24711C2.12117 6.12111 2.08325 5.97848 2.08325 5.83333C2.08325 5.68818 2.12117 5.54554 2.19324 5.41955C2.26531 5.29356 2.36904 5.18857 2.49416 5.11499L9.5775 0.948327ZM4.56083 5.83333L10 9.03333L15.44 5.83333L10 2.63333L4.56083 5.83333Z" fill="white"/>
<path d="M2.19834 9.16083C2.25382 9.06649 2.32733 8.984 2.41469 8.91808C2.50205 8.85216 2.60154 8.80409 2.70748 8.77662C2.81342 8.74915 2.92373 8.74281 3.03211 8.75798C3.1405 8.77314 3.24484 8.8095 3.33917 8.86499L10 12.7833L16.6608 8.86499C16.7552 8.80951 16.8595 8.77315 16.9679 8.75799C17.0763 8.74283 17.1866 8.74916 17.2925 8.77663C17.3985 8.80411 17.4979 8.85217 17.5853 8.91809C17.6727 8.98401 17.7462 9.06649 17.8017 9.16083C17.8572 9.25516 17.8935 9.3595 17.9087 9.46788C17.9238 9.57627 17.9175 9.68658 17.89 9.79251C17.8626 9.89845 17.8145 9.99794 17.7486 10.0853C17.6826 10.1727 17.6002 10.2462 17.5058 10.3017L10.4225 14.4683C10.2944 14.5436 10.1486 14.5834 10 14.5834C9.85143 14.5834 9.70556 14.5436 9.5775 14.4683L2.49417 10.3017C2.39983 10.2462 2.31735 10.1727 2.25143 10.0853C2.1855 9.99794 2.13743 9.89845 2.10996 9.79252C2.08249 9.68658 2.07616 9.57627 2.09132 9.46788C2.10648 9.35949 2.14285 9.25516 2.19834 9.16083Z" fill="white"/>
<path d="M3.33915 12.615C3.24482 12.5595 3.14048 12.5231 3.0321 12.508C2.92371 12.4928 2.81341 12.4992 2.70747 12.5266C2.49352 12.5821 2.31038 12.7203 2.19832 12.9108C2.14284 13.0051 2.10648 13.1095 2.09132 13.2179C2.07616 13.3263 2.08249 13.4366 2.10996 13.5425C2.16544 13.7564 2.30364 13.9396 2.49415 14.0516L9.57749 18.2183C9.70555 18.2936 9.85142 18.3334 9.99999 18.3334C10.1486 18.3334 10.2944 18.2936 10.4225 18.2183L17.5058 14.0516C17.6963 13.9396 17.8345 13.7564 17.89 13.5425C17.9455 13.3286 17.9137 13.1013 17.8017 12.9108C17.6896 12.7203 17.5065 12.5821 17.2925 12.5266C17.0786 12.4711 16.8513 12.5029 16.6608 12.615L9.99999 16.5333L3.33915 12.615Z" fill="white"/>
</g>
</g>
<defs>
<clipPath id="clip0_38_388">
<rect width="20" height="20" fill="white"/>
</clipPath>
</defs>
</svg>
