<svg width="264" height="48" viewBox="0 0 264 48" fill="none" xmlns="http://www.w3.org/2000/svg">
<g clip-path="url(#clip0_8_474)">
<path d="M0 19.2C0 10.149 0 5.62355 2.81178 2.81178C5.62355 0 10.149 0 19.2 0H28.8C37.851 0 42.3764 0 45.1882 2.81178C48 5.62355 48 10.149 48 19.2V28.8C48 37.851 48 42.3764 45.1882 45.1882C42.3764 48 37.851 48 28.8 48H19.2C10.149 48 5.62355 48 2.81178 45.1882C0 42.3764 0 37.851 0 28.8V19.2Z" fill="url(#paint0_linear_8_474)"/>
<path d="M17.544 31.104L19.8 32.664L31.296 16.56L29.04 15L17.544 31.104ZM19.176 24.12C18.536 24.12 17.952 24.008 17.424 23.784C16.912 23.544 16.472 23.224 16.104 22.824C15.752 22.424 15.48 21.952 15.288 21.408C15.096 20.864 15 20.272 15 19.632C15 18.992 15.096 18.4 15.288 17.856C15.48 17.312 15.752 16.84 16.104 16.44C16.472 16.04 16.912 15.728 17.424 15.504C17.952 15.264 18.536 15.144 19.176 15.144C19.816 15.144 20.392 15.264 20.904 15.504C21.432 15.728 21.872 16.04 22.224 16.44C22.592 16.84 22.872 17.312 23.064 17.856C23.256 18.4 23.352 18.992 23.352 19.632C23.352 20.272 23.256 20.864 23.064 21.408C22.872 21.952 22.592 22.424 22.224 22.824C21.872 23.224 21.432 23.544 20.904 23.784C20.392 24.008 19.816 24.12 19.176 24.12ZM19.176 21.504C19.592 21.504 19.936 21.336 20.208 21C20.48 20.648 20.616 20.192 20.616 19.632C20.616 19.072 20.48 18.624 20.208 18.288C19.936 17.936 19.592 17.76 19.176 17.76C18.76 17.76 18.416 17.936 18.144 18.288C17.872 18.624 17.736 19.072 17.736 19.632C17.736 20.192 17.872 20.648 18.144 21C18.416 21.336 18.76 21.504 19.176 21.504ZM29.664 32.52C29.024 32.52 28.44 32.408 27.912 32.184C27.4 31.944 26.96 31.624 26.592 31.224C26.24 30.824 25.968 30.352 25.776 29.808C25.584 29.264 25.488 28.672 25.488 28.032C25.488 27.392 25.584 26.8 25.776 26.256C25.968 25.712 26.24 25.24 26.592 24.84C26.96 24.44 27.4 24.128 27.912 23.904C28.44 23.664 29.024 23.544 29.664 23.544C30.304 23.544 30.88 23.664 31.392 23.904C31.92 24.128 32.36 24.44 32.712 24.84C33.08 25.24 33.36 25.712 33.552 26.256C33.744 26.8 33.84 27.392 33.84 28.032C33.84 28.672 33.744 29.264 33.552 29.808C33.36 30.352 33.08 30.824 32.712 31.224C32.36 31.624 31.92 31.944 31.392 32.184C30.88 32.408 30.304 32.52 29.664 32.52ZM29.664 29.904C30.08 29.904 30.424 29.728 30.696 29.376C30.968 29.024 31.104 28.576 31.104 28.032C31.104 27.472 30.968 27.024 30.696 26.688C30.424 26.336 30.08 26.16 29.664 26.16C29.248 26.16 28.904 26.336 28.632 26.688C28.36 27.024 28.224 27.472 28.224 28.032C28.224 28.576 28.36 29.024 28.632 29.376C28.904 29.728 29.248 29.904 29.664 29.904Z" fill="white"/>
<path d="M24 0L48 24C36.6863 24 31.0294 24 27.5147 20.4853C24 16.9706 24 11.3137 24 0Z" fill="white"/>
<path d="M32 0H24L48 24V16C48 8.45753 48 4.68629 45.6569 2.34315C43.3137 0 39.5425 0 32 0Z" fill="#ECEEF1"/>
</g>
<path d="M64.7904 32.8V12.64H81.0912V32.8H77.4912V15.952H68.3904V32.8H64.7904Z" fill="white"/>
<path d="M85.337 38.56V18.4H88.6202V38.56H85.337ZM93.545 33.2032C92.6042 33.2032 91.7402 33.0304 90.953 32.6848C90.185 32.32 89.5226 31.8112 88.9658 31.1584C88.409 30.4864 87.977 29.68 87.6698 28.7392C87.3626 27.7984 87.209 26.752 87.209 25.6C87.209 24.448 87.3626 23.4016 87.6698 22.4608C87.977 21.52 88.409 20.7232 88.9658 20.0704C89.5226 19.3984 90.185 18.8896 90.953 18.544C91.721 18.1792 92.585 17.9968 93.545 17.9968C94.505 17.9968 95.3978 18.1888 96.2234 18.5728C97.0682 18.9568 97.7978 19.4848 98.4122 20.1568C99.0266 20.8096 99.497 21.6064 99.8234 22.5472C100.169 23.4688 100.342 24.4864 100.342 25.6C100.342 26.6944 100.169 27.712 99.8234 28.6528C99.497 29.5936 99.0266 30.4 98.4122 31.072C97.7978 31.744 97.0682 32.272 96.2234 32.656C95.3978 33.0208 94.505 33.2032 93.545 33.2032ZM92.825 30.1792C93.4394 30.1792 94.0058 30.064 94.5242 29.8336C95.0426 29.6032 95.4842 29.2864 95.849 28.8832C96.2138 28.4608 96.5018 27.9712 96.713 27.4144C96.9242 26.8576 97.0298 26.2528 97.0298 25.6C97.0298 24.928 96.9242 24.3232 96.713 23.7856C96.5018 23.2288 96.2138 22.7488 95.849 22.3456C95.4842 21.9232 95.0426 21.5968 94.5242 21.3664C94.0058 21.136 93.4394 21.0208 92.825 21.0208C92.2106 21.0208 91.6442 21.136 91.1258 21.3664C90.6074 21.5968 90.1658 21.9232 89.801 22.3456C89.4362 22.7488 89.1482 23.2288 88.937 23.7856C88.7258 24.3232 88.6202 24.928 88.6202 25.6C88.6202 26.2528 88.7258 26.8576 88.937 27.4144C89.1482 27.9712 89.4362 28.4608 89.801 28.8832C90.1658 29.2864 90.6074 29.6032 91.1258 29.8336C91.6442 30.064 92.2106 30.1792 92.825 30.1792Z" fill="white"/>
<path d="M110.332 33.2032C109.218 33.2032 108.191 33.0112 107.25 32.6272C106.329 32.2432 105.532 31.7152 104.86 31.0432C104.188 30.3712 103.66 29.5744 103.276 28.6528C102.911 27.712 102.729 26.6944 102.729 25.6C102.729 24.5056 102.911 23.4976 103.276 22.576C103.66 21.6352 104.188 20.8288 104.86 20.1568C105.532 19.4848 106.329 18.9568 107.25 18.5728C108.191 18.1888 109.218 17.9968 110.332 17.9968C111.446 17.9968 112.463 18.1888 113.385 18.5728C114.306 18.9568 115.103 19.4944 115.775 20.1856C116.447 20.8576 116.966 21.6544 117.33 22.576C117.714 23.4976 117.906 24.5056 117.906 25.6C117.906 26.6944 117.714 27.7024 117.33 28.624C116.966 29.5456 116.447 30.352 115.775 31.0432C115.103 31.7152 114.306 32.2432 113.385 32.6272C112.463 33.0112 111.446 33.2032 110.332 33.2032ZM110.332 30.1792C110.946 30.1792 111.513 30.064 112.031 29.8336C112.55 29.6032 113.001 29.2864 113.385 28.8832C113.769 28.4608 114.066 27.9712 114.278 27.4144C114.489 26.8576 114.594 26.2528 114.594 25.6C114.594 24.928 114.489 24.3232 114.278 23.7856C114.066 23.2288 113.769 22.7488 113.385 22.3456C113.001 21.9232 112.55 21.5968 112.031 21.3664C111.513 21.136 110.946 21.0208 110.332 21.0208C109.698 21.0208 109.122 21.136 108.604 21.3664C108.086 21.5968 107.634 21.9232 107.25 22.3456C106.886 22.7488 106.598 23.2288 106.386 23.7856C106.175 24.3232 106.07 24.928 106.07 25.6C106.07 26.2528 106.175 26.8576 106.386 27.4144C106.598 27.9712 106.886 28.4608 107.25 28.8832C107.634 29.2864 108.086 29.6032 108.604 29.8336C109.122 30.064 109.698 30.1792 110.332 30.1792Z" fill="white"/>
<path d="M129.094 27.1264H128.864L133.097 18.4H136.928V32.8H133.904V22.4896L134.105 22.432L129.901 30.8416H127.971L123.766 22.432L123.968 22.4896V32.8H120.944V18.4H124.861L129.094 27.1264Z" fill="white"/>
<path d="M147.485 33.2032C146.372 33.2032 145.344 33.0112 144.404 32.6272C143.482 32.2432 142.685 31.7152 142.013 31.0432C141.341 30.3712 140.813 29.5744 140.429 28.6528C140.064 27.712 139.882 26.6944 139.882 25.6C139.882 24.5056 140.064 23.4976 140.429 22.576C140.813 21.6352 141.341 20.8288 142.013 20.1568C142.685 19.4848 143.482 18.9568 144.404 18.5728C145.344 18.1888 146.372 17.9968 147.485 17.9968C148.599 17.9968 149.616 18.1888 150.538 18.5728C151.46 18.9568 152.256 19.4944 152.928 20.1856C153.6 20.8576 154.119 21.6544 154.484 22.576C154.868 23.4976 155.06 24.5056 155.06 25.6C155.06 26.6944 154.868 27.7024 154.484 28.624C154.119 29.5456 153.6 30.352 152.928 31.0432C152.256 31.7152 151.46 32.2432 150.538 32.6272C149.616 33.0112 148.599 33.2032 147.485 33.2032ZM147.485 30.1792C148.1 30.1792 148.666 30.064 149.184 29.8336C149.703 29.6032 150.154 29.2864 150.538 28.8832C150.922 28.4608 151.22 27.9712 151.431 27.4144C151.642 26.8576 151.748 26.2528 151.748 25.6C151.748 24.928 151.642 24.3232 151.431 23.7856C151.22 23.2288 150.922 22.7488 150.538 22.3456C150.154 21.9232 149.703 21.5968 149.184 21.3664C148.666 21.136 148.1 21.0208 147.485 21.0208C146.852 21.0208 146.276 21.136 145.757 21.3664C145.239 21.5968 144.788 21.9232 144.404 22.3456C144.039 22.7488 143.751 23.2288 143.54 23.7856C143.328 24.3232 143.223 24.928 143.223 25.6C143.223 26.2528 143.328 26.8576 143.54 27.4144C143.751 27.9712 144.039 28.4608 144.404 28.8832C144.788 29.2864 145.239 29.6032 145.757 29.8336C146.276 30.064 146.852 30.1792 147.485 30.1792Z" fill="white"/>
<path d="M161.38 18.4V23.9008H164.116V26.8096H161.38V32.8H158.097V18.4H161.38ZM162.331 25.3408L167.572 18.4H171.115L165.844 25.2544L171.259 32.8H167.601L162.331 25.3408Z" fill="white"/>
<path d="M179.491 33.2032C178.378 33.2032 177.351 33.0112 176.41 32.6272C175.488 32.2432 174.691 31.7152 174.019 31.0432C173.347 30.3712 172.819 29.5744 172.435 28.6528C172.071 27.712 171.888 26.6944 171.888 25.6C171.888 24.5056 172.071 23.4976 172.435 22.576C172.819 21.6352 173.347 20.8288 174.019 20.1568C174.691 19.4848 175.488 18.9568 176.41 18.5728C177.351 18.1888 178.378 17.9968 179.491 17.9968C180.605 17.9968 181.623 18.1888 182.544 18.5728C183.466 18.9568 184.263 19.4944 184.935 20.1856C185.607 20.8576 186.125 21.6544 186.49 22.576C186.874 23.4976 187.066 24.5056 187.066 25.6C187.066 26.6944 186.874 27.7024 186.49 28.624C186.125 29.5456 185.607 30.352 184.935 31.0432C184.263 31.7152 183.466 32.2432 182.544 32.6272C181.623 33.0112 180.605 33.2032 179.491 33.2032ZM179.491 30.1792C180.106 30.1792 180.672 30.064 181.191 29.8336C181.709 29.6032 182.16 29.2864 182.544 28.8832C182.928 28.4608 183.226 27.9712 183.437 27.4144C183.648 26.8576 183.754 26.2528 183.754 25.6C183.754 24.928 183.648 24.3232 183.437 23.7856C183.226 23.2288 182.928 22.7488 182.544 22.3456C182.16 21.9232 181.709 21.5968 181.191 21.3664C180.672 21.136 180.106 21.0208 179.491 21.0208C178.858 21.0208 178.282 21.136 177.763 21.3664C177.245 21.5968 176.794 21.9232 176.41 22.3456C176.045 22.7488 175.757 23.2288 175.546 23.7856C175.335 24.3232 175.229 24.928 175.229 25.6C175.229 26.2528 175.335 26.8576 175.546 27.4144C175.757 27.9712 176.045 28.4608 176.41 28.8832C176.794 29.2864 177.245 29.6032 177.763 29.8336C178.282 30.064 178.858 30.1792 179.491 30.1792Z" fill="white"/>
<path d="M188.615 36.4288V29.8048H190.17C190.343 29.5168 190.497 29.1616 190.631 28.7392C190.766 28.3168 190.881 27.7792 190.977 27.1264C191.073 26.4736 191.14 25.6864 191.178 24.7648C191.236 23.824 191.265 22.7008 191.265 21.3952V18.4H202.554V29.8048H204.714V36.4288H201.489V32.8H191.841V36.4288H188.615ZM193.511 29.8048H199.271V21.3952H194.404V22.6336C194.404 23.5744 194.385 24.4096 194.346 25.1392C194.308 25.8496 194.25 26.4928 194.174 27.0688C194.116 27.6256 194.03 28.1248 193.914 28.5664C193.799 29.008 193.665 29.4208 193.511 29.8048Z" fill="white"/>
<path d="M213.973 33.2032C212.859 33.2032 211.832 33.0112 210.891 32.6272C209.969 32.2432 209.173 31.7152 208.501 31.0432C207.829 30.3712 207.301 29.5744 206.917 28.6528C206.552 27.712 206.369 26.6944 206.369 25.6C206.369 24.5056 206.552 23.4976 206.917 22.576C207.301 21.6352 207.829 20.8288 208.501 20.1568C209.173 19.4848 209.969 18.9568 210.891 18.5728C211.832 18.1888 212.859 17.9968 213.973 17.9968C215.086 17.9968 216.104 18.1888 217.025 18.5728C217.947 18.9568 218.744 19.4944 219.416 20.1856C220.088 20.8576 220.606 21.6544 220.971 22.576C221.355 23.4976 221.547 24.5056 221.547 25.6C221.547 26.6944 221.355 27.7024 220.971 28.624C220.606 29.5456 220.088 30.352 219.416 31.0432C218.744 31.7152 217.947 32.2432 217.025 32.6272C216.104 33.0112 215.086 33.2032 213.973 33.2032ZM213.973 30.1792C214.587 30.1792 215.153 30.064 215.672 29.8336C216.19 29.6032 216.641 29.2864 217.025 28.8832C217.409 28.4608 217.707 27.9712 217.918 27.4144C218.129 26.8576 218.235 26.2528 218.235 25.6C218.235 24.928 218.129 24.3232 217.918 23.7856C217.707 23.2288 217.409 22.7488 217.025 22.3456C216.641 21.9232 216.19 21.5968 215.672 21.3664C215.153 21.136 214.587 21.0208 213.973 21.0208C213.339 21.0208 212.763 21.136 212.245 21.3664C211.726 21.5968 211.275 21.9232 210.891 22.3456C210.526 22.7488 210.238 23.2288 210.027 23.7856C209.816 24.3232 209.71 24.928 209.71 25.6C209.71 26.2528 209.816 26.8576 210.027 27.4144C210.238 27.9712 210.526 28.4608 210.891 28.8832C211.275 29.2864 211.726 29.6032 212.245 29.8336C212.763 30.064 213.339 30.1792 213.973 30.1792Z" fill="white"/>
<path d="M224.585 32.8V18.4H231.641C232.965 18.4 234.021 18.736 234.809 19.408C235.596 20.0608 235.989 20.944 235.989 22.0576C235.989 22.9024 235.749 23.6128 235.269 24.1888C234.789 24.7648 234.127 25.1488 233.282 25.3408L233.253 24.9952C234.29 25.1872 235.097 25.6192 235.673 26.2912C236.268 26.944 236.565 27.76 236.565 28.7392C236.565 29.968 236.133 30.9568 235.269 31.7056C234.405 32.4352 233.273 32.8 231.871 32.8H224.585ZM227.637 24.1312H231.209C231.765 24.1312 232.188 23.9776 232.476 23.6704C232.764 23.344 232.908 22.96 232.908 22.5184C232.908 22.096 232.764 21.7312 232.476 21.424C232.188 21.1168 231.765 20.9632 231.209 20.9632H227.637V24.1312ZM227.637 30.2368H231.554C232.149 30.2368 232.61 30.0736 232.937 29.7472C233.282 29.4016 233.455 28.96 233.455 28.4224C233.455 27.8848 233.282 27.4528 232.937 27.1264C232.61 26.7808 232.149 26.608 231.554 26.608H227.637V30.2368Z" fill="white"/>
<path d="M246.26 33.2032C245.147 33.2032 244.119 33.0112 243.179 32.6272C242.257 32.2432 241.46 31.7152 240.788 31.0432C240.116 30.3712 239.588 29.5744 239.204 28.6528C238.839 27.712 238.657 26.6944 238.657 25.6C238.657 24.5056 238.839 23.4976 239.204 22.576C239.588 21.6352 240.116 20.8288 240.788 20.1568C241.46 19.4848 242.257 18.9568 243.179 18.5728C244.119 18.1888 245.147 17.9968 246.26 17.9968C247.374 17.9968 248.391 18.1888 249.313 18.5728C250.235 18.9568 251.031 19.4944 251.703 20.1856C252.375 20.8576 252.894 21.6544 253.259 22.576C253.643 23.4976 253.835 24.5056 253.835 25.6C253.835 26.6944 253.643 27.7024 253.259 28.624C252.894 29.5456 252.375 30.352 251.703 31.0432C251.031 31.7152 250.235 32.2432 249.313 32.6272C248.391 33.0112 247.374 33.2032 246.26 33.2032ZM246.26 30.1792C246.875 30.1792 247.441 30.064 247.959 29.8336C248.478 29.6032 248.929 29.2864 249.313 28.8832C249.697 28.4608 249.995 27.9712 250.206 27.4144C250.417 26.8576 250.523 26.2528 250.523 25.6C250.523 24.928 250.417 24.3232 250.206 23.7856C249.995 23.2288 249.697 22.7488 249.313 22.3456C248.929 21.9232 248.478 21.5968 247.959 21.3664C247.441 21.136 246.875 21.0208 246.26 21.0208C245.627 21.0208 245.051 21.136 244.532 21.3664C244.014 21.5968 243.563 21.9232 243.179 22.3456C242.814 22.7488 242.526 23.2288 242.315 23.7856C242.103 24.3232 241.998 24.928 241.998 25.6C241.998 26.2528 242.103 26.8576 242.315 27.4144C242.526 27.9712 242.814 28.4608 243.179 28.8832C243.563 29.2864 244.014 29.6032 244.532 29.8336C245.051 30.064 245.627 30.1792 246.26 30.1792Z" fill="white"/>
<defs>
<linearGradient id="paint0_linear_8_474" x1="24" y1="0" x2="24" y2="48" gradientUnits="userSpaceOnUse">
<stop stop-color="#8FECDD"/>
<stop offset="0.49375" stop-color="#22D9BB"/>
<stop offset="1" stop-color="#4EE1C9"/>
</linearGradient>
<clipPath id="clip0_8_474">
<rect width="48" height="48" fill="white"/>
</clipPath>
</defs>
</svg>
