<svg width="18" height="11" viewBox="0 0 18 11" fill="none" xmlns="http://www.w3.org/2000/svg">
<path d="M16.3958 10.75L14.3333 10.0417L15.9583 5.5625L17.7291 9.20833C17.9235 9.58333 17.8402 9.96528 17.4791 10.3542C17.118 10.7431 16.7569 10.875 16.3958 10.75ZM11.1666 9.95833L12.0624 2.16666C12.0902 1.95833 12.184 1.81597 12.3437 1.73958C12.5034 1.66319 12.6944 1.65972 12.9166 1.72916L14.9999 2.5C15.1944 2.58333 15.3228 2.70833 15.3853 2.875C15.4478 3.04166 15.4444 3.22222 15.3749 3.41666L13.0208 9.95833H11.1666ZM4.99993 9.95833L2.64576 3.41666C2.57632 3.22222 2.57284 3.03819 2.63534 2.86458C2.69784 2.69097 2.82632 2.56944 3.02076 2.5L5.10409 1.72916C5.29854 1.64583 5.48257 1.64236 5.65618 1.71875C5.82979 1.79514 5.93048 1.94444 5.95826 2.16666L6.83326 9.95833H4.99993ZM1.41659 10.75C1.05548 10.8611 0.729093 10.7257 0.437427 10.3437C0.14576 9.9618 0.097149 9.58333 0.291593 9.20833L2.08326 5.5625L3.68743 10.0417L1.41659 10.75ZM8.08326 9.95833L7.08326 0.999997C7.05548 0.763886 7.12145 0.56597 7.28118 0.406247C7.4409 0.246525 7.63882 0.166664 7.87493 0.166664H10.1249C10.361 0.166664 10.559 0.246525 10.7187 0.406247C10.8784 0.56597 10.9444 0.763886 10.9166 0.999997L9.91659 9.95833H8.08326Z" fill="#AB87FF"/>
</svg>
