<svg width="14" height="18" viewBox="0 0 14 18" fill="none" xmlns="http://www.w3.org/2000/svg">
<path d="M1.04171 17.3333V11.6875L5.14587 15.7917C5.89587 15.0417 6.56601 14.2326 7.15629 13.3646C7.74657 12.4965 8.04171 11.5347 8.04171 10.4792C8.04171 9.70139 7.88893 8.95486 7.58337 8.23958C7.27782 7.5243 6.85421 6.89583 6.31254 6.35416L3.95837 4H6.87504L10.2084 0.666664L11.9167 2.375C12.4723 2.93055 12.9028 3.55903 13.2084 4.26041C13.5139 4.9618 13.6667 5.70833 13.6667 6.5C13.6667 7.29166 13.5139 8.03819 13.2084 8.73958C12.9028 9.44097 12.4723 10.0694 11.9167 10.625L10.2084 12.3333V17.3333H1.04171ZM5.14587 13.4375L0.812541 9.10416C0.659763 8.95139 0.541707 8.77083 0.458374 8.5625C0.375041 8.35416 0.333374 8.13889 0.333374 7.91666C0.333374 7.69444 0.375041 7.48264 0.458374 7.28125C0.541707 7.07986 0.659763 6.90278 0.812541 6.75L2.56254 4.97916L5.14587 7.54166C5.53476 7.93055 5.83685 8.37847 6.05212 8.88541C6.2674 9.39236 6.37504 9.92361 6.37504 10.4792C6.37504 11.0347 6.27087 11.566 6.06254 12.0729C5.85421 12.5799 5.54865 13.0347 5.14587 13.4375Z" fill="#AB87FF"/>
</svg>
