<svg width="20" height="20" viewBox="0 0 20 20" fill="none" xmlns="http://www.w3.org/2000/svg">
<path d="M0.833374 12.5C0.833374 10.9861 1.46532 9.77431 2.72921 8.86459C3.9931 7.95486 5.44449 7.5 7.08337 7.5C8.72226 7.5 10.1737 7.95486 11.4375 8.86459C12.7014 9.77431 13.3334 10.9861 13.3334 12.5H0.833374ZM0.833374 15.8333V14.1667H13.3334V15.8333H0.833374ZM1.66671 19.1667C1.4306 19.1667 1.23268 19.0868 1.07296 18.9271C0.913235 18.7674 0.833374 18.5694 0.833374 18.3333V17.5H13.3334V18.3333C13.3334 18.5694 13.2535 18.7674 13.0938 18.9271C12.9341 19.0868 12.7362 19.1667 12.5 19.1667H1.66671ZM15 19.1667V12.5C15 10.9167 14.4584 9.54861 13.375 8.39584C12.2917 7.24306 10.9653 6.47223 9.39587 6.08334L9.16671 4.16667H13.3334V0.833336H15V4.16667H19.1667L17.8125 17.6667C17.7709 18.0972 17.5938 18.4549 17.2813 18.7396C16.9688 19.0243 16.5973 19.1667 16.1667 19.1667H15Z" fill="#AB87FF"/>
</svg>
