<svg width="16" height="16" viewBox="0 0 16 16" fill="none" xmlns="http://www.w3.org/2000/svg">
<path d="M3.70833 12.2917L1.04167 10.8333L1.91667 9.95833L4 10.25L7.25 7L0.75 3.45833L1.91667 2.29167L9.875 4.33333L13.1458 1.10417C13.3819 0.868056 13.6771 0.75 14.0313 0.75C14.3854 0.75 14.6806 0.868056 14.9167 1.10417C15.1528 1.34028 15.2708 1.63542 15.2708 1.98958C15.2708 2.34375 15.1528 2.63889 14.9167 2.875L11.6667 6.125L13.7083 14.0833L12.5417 15.25L9 8.75L5.75 12L6.04167 14.0833L5.16667 14.9583L3.70833 12.2917Z" fill="#AB87FF"/>
</svg>
