<svg width="18" height="18" viewBox="0 0 18 18" fill="none" xmlns="http://www.w3.org/2000/svg">
<path d="M6.91663 12.75L12.75 9L6.91663 5.25V12.75ZM8.99996 17.3333C7.84718 17.3333 6.76385 17.1146 5.74996 16.6771C4.73607 16.2396 3.85413 15.6458 3.10413 14.8958C2.35413 14.1458 1.76038 13.2639 1.32288 12.25C0.885376 11.2361 0.666626 10.1528 0.666626 9C0.666626 7.84722 0.885376 6.76389 1.32288 5.75C1.76038 4.73611 2.35413 3.85416 3.10413 3.10416C3.85413 2.35416 4.73607 1.76041 5.74996 1.32291C6.76385 0.885414 7.84718 0.666664 8.99996 0.666664C10.1527 0.666664 11.2361 0.885414 12.25 1.32291C13.2638 1.76041 14.1458 2.35416 14.8958 3.10416C15.6458 3.85416 16.2395 4.73611 16.677 5.75C17.1145 6.76389 17.3333 7.84722 17.3333 9C17.3333 10.1528 17.1145 11.2361 16.677 12.25C16.2395 13.2639 15.6458 14.1458 14.8958 14.8958C14.1458 15.6458 13.2638 16.2396 12.25 16.6771C11.2361 17.1146 10.1527 17.3333 8.99996 17.3333Z" fill="#AB87FF"/>
</svg>
