<svg width="14" height="18" viewBox="0 0 14 18" fill="none" xmlns="http://www.w3.org/2000/svg">
<path d="M2.00004 17.3333C1.54171 17.3333 1.14935 17.1701 0.822957 16.8437C0.496568 16.5174 0.333374 16.125 0.333374 15.6667V5.66666C0.333374 5.20833 0.496568 4.81597 0.822957 4.48958C1.14935 4.16319 1.54171 4 2.00004 4H3.66671C3.66671 3.08333 3.9931 2.29861 4.64587 1.64583C5.29865 0.993053 6.08337 0.666664 7.00004 0.666664C7.91671 0.666664 8.70143 0.993053 9.35421 1.64583C10.007 2.29861 10.3334 3.08333 10.3334 4H12C12.4584 4 12.8507 4.16319 13.1771 4.48958C13.5035 4.81597 13.6667 5.20833 13.6667 5.66666V15.6667C13.6667 16.125 13.5035 16.5174 13.1771 16.8437C12.8507 17.1701 12.4584 17.3333 12 17.3333H2.00004ZM5.33337 4H8.66671C8.66671 3.54166 8.50351 3.1493 8.17712 2.82291C7.85074 2.49653 7.45837 2.33333 7.00004 2.33333C6.54171 2.33333 6.14935 2.49653 5.82296 2.82291C5.49657 3.1493 5.33337 3.54166 5.33337 4ZM9.50004 8.16666C9.73615 8.16666 9.93407 8.0868 10.0938 7.92708C10.2535 7.76736 10.3334 7.56944 10.3334 7.33333V5.66666H8.66671V7.33333C8.66671 7.56944 8.74657 7.76736 8.90629 7.92708C9.06601 8.0868 9.26393 8.16666 9.50004 8.16666ZM4.50004 8.16666C4.73615 8.16666 4.93407 8.0868 5.09379 7.92708C5.25351 7.76736 5.33337 7.56944 5.33337 7.33333V5.66666H3.66671V7.33333C3.66671 7.56944 3.74657 7.76736 3.90629 7.92708C4.06601 8.0868 4.26393 8.16666 4.50004 8.16666Z" fill="#AB87FF"/>
</svg>
